<svg width="44" height="32" viewBox="0 0 44 32" fill="none" xmlns="http://www.w3.org/2000/svg">
<path d="M0.151855 12.6157C0.151855 5.98831 5.52444 0.615723 12.1519 0.615723H41.3924C42.497 0.615723 43.3924 1.51115 43.3924 2.61572V20C43.3924 26.6274 38.0199 32 31.3924 32H2.15186C1.04729 32 0.151855 31.1046 0.151855 30V12.6157Z" fill="#6955EA"/>
<path d="M25.1299 21.9089H28.0613V10.652H25.1299V8.24365H34.1965V10.652H31.2869V21.9089H34.1965V24.3281H25.1299V21.9089Z" fill="white"/>
<path d="M8.58643 24.3281L13.8825 8.24365H18.1761L23.5376 24.3281H20.1049L19.2113 21.266H12.8909L11.9646 24.3281H8.58643ZM13.6537 18.7596H18.4703L16.1056 10.6629L13.6537 18.7596Z" fill="white"/>
</svg>
