<svg width="345" height="344" viewBox="0 0 345 344" fill="none" xmlns="http://www.w3.org/2000/svg">
<g filter="url(#filter0_d_4140_27683)">
<g filter="url(#filter1_d_4140_27683)">
<circle cx="172.25" cy="147" r="120" fill="#413972"/>
<circle cx="172.25" cy="147" r="121" stroke="white" stroke-width="2"/>
</g>
<path fill-rule="evenodd" clip-rule="evenodd" d="M161.293 120.499C165.382 120.499 168.896 123.331 169.665 127.247L170.007 128.989C171.352 135.834 178.613 139.921 185.365 137.634L187.083 137.052C190.946 135.744 195.218 137.295 197.263 140.748L200.351 145.963C202.396 149.417 201.637 153.799 198.544 156.407L197.168 157.567C191.76 162.125 191.76 170.3 197.168 174.858L198.544 176.017C201.637 178.625 202.396 183.008 200.351 186.461L197.263 191.676C195.218 195.13 190.946 196.68 187.083 195.372L185.365 194.79C178.613 192.502 171.352 196.59 170.007 203.436L169.665 205.177C168.896 209.093 165.382 211.925 161.293 211.925H155.116C151.027 211.925 147.514 209.093 146.744 205.177L146.402 203.435C145.057 196.59 137.796 192.502 131.044 194.79L129.326 195.371C125.463 196.68 121.192 195.129 119.147 191.676L116.058 186.461C114.014 183.008 114.772 178.625 117.866 176.017L119.242 174.858C124.649 170.299 124.649 162.125 119.242 157.567L117.866 156.407C114.772 153.799 114.014 149.417 116.058 145.964L119.147 140.748C121.192 137.295 125.463 135.744 129.326 137.052L131.044 137.634C137.796 139.921 145.057 135.834 146.402 128.989L146.744 127.247C147.514 123.331 151.027 120.499 155.116 120.499H161.293ZM158.205 179.273C165.377 179.273 171.191 173.425 171.191 166.212C171.191 158.999 165.377 153.151 158.205 153.151C151.032 153.151 145.218 158.999 145.218 166.212C145.218 173.425 151.032 179.273 158.205 179.273Z" fill="white"/>
<path fill-rule="evenodd" clip-rule="evenodd" d="M207.44 83.6336C209.919 83.4382 212.183 84.9812 212.836 87.3105L213.126 88.3463C214.267 92.4177 218.863 94.5404 222.847 92.836L223.861 92.4022C226.14 91.4271 228.803 92.1599 230.206 94.1485L232.327 97.1522C233.731 99.1408 233.48 101.825 231.729 103.548L230.95 104.315C227.89 107.327 228.279 112.266 231.774 114.762L232.663 115.397C234.662 116.824 235.331 119.436 234.256 121.62L232.633 124.919C231.558 127.103 229.042 128.244 226.639 127.638L225.57 127.368C221.368 126.309 217.162 129.126 216.673 133.326L216.548 134.395C216.269 136.797 214.274 138.676 211.795 138.872L208.051 139.167C205.573 139.362 203.308 137.819 202.656 135.49L202.365 134.454C201.224 130.382 196.628 128.26 192.644 129.964L191.631 130.398C189.352 131.373 186.689 130.64 185.285 128.652L183.165 125.648C181.761 123.66 182.012 120.976 183.763 119.252L184.541 118.486C187.602 115.473 187.212 110.534 183.718 108.039L182.828 107.404C180.829 105.976 180.161 103.364 181.236 101.18L182.859 97.8816C183.934 95.6975 186.449 94.5564 188.853 95.1624L189.922 95.4319C194.123 96.4909 198.33 93.6744 198.819 89.4746L198.943 88.4057C199.223 86.0029 201.217 84.1242 203.696 83.9288L207.44 83.6336ZM208.368 119.291C212.715 118.949 215.961 115.138 215.617 110.78C215.274 106.421 211.471 103.166 207.124 103.509C202.776 103.852 199.531 107.663 199.874 112.021C200.218 116.379 204.021 119.634 208.368 119.291Z" fill="white"/>
<path fill-rule="evenodd" clip-rule="evenodd" d="M229.465 140.53C231.213 140.802 232.527 142.242 232.596 143.962L232.627 144.727C232.748 147.734 235.581 149.958 238.62 149.433L239.393 149.299C241.131 148.999 242.854 149.943 243.5 151.551L244.474 153.979C245.119 155.587 244.505 157.404 243.009 158.309L242.344 158.712C239.73 160.295 239.188 163.779 241.198 166.081L241.709 166.666C242.859 167.983 242.893 169.901 241.789 171.237L240.123 173.254C239.02 174.59 237.091 174.967 235.526 174.152L234.831 173.79C232.096 172.366 228.72 173.625 227.692 176.453L227.43 177.172C226.842 178.79 225.152 179.763 223.404 179.491L220.763 179.08C219.015 178.808 217.7 177.368 217.631 175.648L217.6 174.882C217.479 171.876 214.646 169.651 211.608 170.177L210.835 170.311C209.096 170.612 207.373 169.666 206.728 168.059L205.753 165.631C205.108 164.023 205.723 162.206 207.218 161.301L207.883 160.898C210.497 159.315 211.039 155.831 209.03 153.53L208.518 152.944C207.369 151.627 207.335 149.709 208.438 148.373L210.104 146.356C211.207 145.02 213.136 144.644 214.701 145.458L215.397 145.82C218.132 147.244 221.507 145.985 222.536 143.157L222.797 142.438C223.386 140.82 225.075 139.847 226.824 140.119L229.465 140.53ZM224.248 165.371C227.314 165.848 230.187 163.743 230.666 160.669C231.144 157.595 229.046 154.716 225.98 154.239C222.913 153.762 220.04 155.867 219.562 158.941C219.084 162.015 221.181 164.894 224.248 165.371Z" fill="white"/>
<path fill-rule="evenodd" clip-rule="evenodd" d="M124.843 87.1289C124.485 86.3589 123.39 86.3589 123.031 87.1289L118.793 96.2217C117.799 98.3537 116.085 100.067 113.953 101.061L104.861 105.299C104.091 105.658 104.091 106.753 104.861 107.112L113.953 111.35C116.085 112.344 117.799 114.057 118.793 116.189L123.031 125.282C123.39 126.052 124.485 126.052 124.843 125.282L129.082 116.189C130.075 114.057 131.789 112.344 133.921 111.35L143.014 107.112C143.784 106.753 143.784 105.658 143.014 105.299L133.921 101.061C131.789 100.067 130.075 98.3537 129.082 96.2217L124.843 87.1289Z" fill="#9E93DF"/>
<path fill-rule="evenodd" clip-rule="evenodd" d="M146.976 76.0295C146.8 75.6333 146.238 75.6333 146.062 76.0295L143.74 81.261C143.263 82.335 142.423 83.2068 141.367 83.7233L136.373 86.1678C135.999 86.3507 135.999 86.8832 136.373 87.066L141.367 89.5105C142.423 90.027 143.263 90.8988 143.74 91.9728L146.062 97.2043C146.238 97.6005 146.8 97.6005 146.976 97.2043L149.298 91.9728C149.775 90.8988 150.615 90.027 151.67 89.5105L156.665 87.066C157.038 86.8832 157.038 86.3507 156.665 86.1678L151.67 83.7233C150.615 83.2068 149.775 82.335 149.298 81.261L146.976 76.0295Z" fill="#9E93DF"/>
</g>
<defs>
<filter id="filter0_d_4140_27683" x="25.25" y="10" width="294" height="294" filterUnits="userSpaceOnUse" color-interpolation-filters="sRGB">
<feFlood flood-opacity="0" result="BackgroundImageFix"/>
<feColorMatrix in="SourceAlpha" type="matrix" values="0 0 0 0 0 0 0 0 0 0 0 0 0 0 0 0 0 0 127 0" result="hardAlpha"/>
<feOffset dy="10"/>
<feGaussianBlur stdDeviation="12.5"/>
<feComposite in2="hardAlpha" operator="out"/>
<feColorMatrix type="matrix" values="0 0 0 0 0 0 0 0 0 0.0627451 0 0 0 0 0.427451 0 0 0 0.15 0"/>
<feBlend mode="normal" in2="BackgroundImageFix" result="effect1_dropShadow_4140_27683"/>
<feBlend mode="normal" in="SourceGraphic" in2="effect1_dropShadow_4140_27683" result="shape"/>
</filter>
<filter id="filter1_d_4140_27683" x="0.25" y="0" width="344" height="344" filterUnits="userSpaceOnUse" color-interpolation-filters="sRGB">
<feFlood flood-opacity="0" result="BackgroundImageFix"/>
<feColorMatrix in="SourceAlpha" type="matrix" values="0 0 0 0 0 0 0 0 0 0 0 0 0 0 0 0 0 0 127 0" result="hardAlpha"/>
<feOffset dy="25"/>
<feGaussianBlur stdDeviation="25"/>
<feComposite in2="hardAlpha" operator="out"/>
<feColorMatrix type="matrix" values="0 0 0 0 0 0 0 0 0 0.0627451 0 0 0 0 0.427451 0 0 0 0.05 0"/>
<feBlend mode="normal" in2="BackgroundImageFix" result="effect1_dropShadow_4140_27683"/>
<feBlend mode="normal" in="SourceGraphic" in2="effect1_dropShadow_4140_27683" result="shape"/>
</filter>
</defs>
</svg>
