<svg width="121" height="120" viewBox="0 0 121 120" fill="none" xmlns="http://www.w3.org/2000/svg">
<path fill-rule="evenodd" clip-rule="evenodd" d="M60.834 25C77.4025 25 90.834 38.4315 90.834 55C90.834 66.1042 84.801 75.7993 75.8341 80.9865L75.834 100L70.834 105H65.834C65.834 107.761 63.5954 110 60.834 110C58.0726 110 55.834 107.761 55.834 105H50.834L45.834 100L45.8339 80.9865C36.8669 75.7993 30.834 66.1042 30.834 55C30.834 38.4315 44.2654 25 60.834 25ZM65.8342 84.5852C64.2081 84.858 62.5376 85 60.834 85C59.1303 85 57.4599 84.858 55.8337 84.5852L55.834 95H65.834L65.8342 84.5852ZM33.4336 77.0971L38.7369 82.4004L28.1303 93.007L22.827 87.7037L33.4336 77.0971ZM88.2344 77.0971L98.841 87.7037L93.5377 93.007L82.9311 82.4004L88.2344 77.0971ZM110.834 51.25V58.75H95.834V51.25H110.834ZM25.834 51.25V58.75H10.834V51.25H25.834ZM93.5377 16.993L98.841 22.2963L88.2344 32.9029L82.9311 27.5996L93.5377 16.993ZM28.1303 16.993L38.7369 27.5996L33.4336 32.9029L22.827 22.2963L28.1303 16.993ZM64.584 5V20H57.084V5H64.584Z" fill="#CBC3FF"/>
<circle cx="61" cy="55" r="30" fill="#6B6BFF"/>
</svg>
