<svg width="121" height="120" viewBox="0 0 121 120" fill="none" xmlns="http://www.w3.org/2000/svg">
<circle cx="60" cy="63" r="41" fill="white" stroke="#6B6BFF" stroke-width="10"/>
<path d="M93.1698 48.9866C90.4345 42.5233 85.8737 37.0315 80.1295 33.1495C74.3864 29.2676 67.4485 26.9989 60.0006 27C55.0357 27 50.2941 28.007 45.9856 29.8291C39.5244 32.5644 34.0315 37.1264 30.1507 42.8694C26.2687 48.6127 23.9989 55.5514 24 62.9994C23.9989 67.9643 25.007 72.705 26.8291 77.0134C29.5644 83.4756 34.1263 88.9685 39.8705 92.8493C45.6127 96.7313 52.5514 99 60.0006 99C64.9643 99 69.7061 97.9919 74.0134 96.1698C80.4754 93.4343 85.9674 88.8737 89.8493 83.1295C93.7313 77.3862 96 70.4486 96 62.9994C96 58.0355 94.9919 53.2939 93.1698 48.9866ZM65.9982 75.4559C64.6004 77.4343 65.708 80.4219 64.0733 82.1368C62.4277 83.8585 61.6194 83.3181 60.5732 85.7531C60.4427 86.059 58.6551 90.0772 58.1449 88.8022C58.6082 89.952 58.1806 91.0361 56.8364 91.035C55.5021 91.0327 57.0787 92.148 55.7835 92.4652C55.3993 92.5678 55.357 93.3505 55.5211 94.3574C54.5397 94.219 53.5706 94.0359 52.6194 93.8094C51.3175 89.7152 50.5964 84.8765 50.5874 83.6003C50.5663 79.1802 49.6686 80.9241 47.5015 77.6718C46.0312 75.4591 44.7607 73.0742 44.8232 70.3758C44.8076 70.8615 47.6602 63.5408 45.598 64.9353C43.0927 66.6312 42.6405 62.584 40.2301 62.2378C38.9996 62.0615 39.3581 60.7139 37.9703 60.9338C36.7221 61.1314 35.284 59.843 34.3306 59.1531C33.7144 58.7042 32.5576 52.2622 31.612 52.2779C30.2745 52.2856 32.6459 56.7717 32.1579 56.88C31.5696 56.9983 30.6618 54.6972 30.0334 52.7155C30.2691 52.0234 30.5291 51.3401 30.8127 50.6713C33.2153 44.9885 37.2346 40.1497 42.2922 36.7334C44.0116 35.5711 45.8537 34.5797 47.7898 33.7693C47.8836 33.7646 47.9784 33.7591 48.0722 33.7456C49.8217 33.5392 54.9497 31.5295 56.3833 33.096C56.9861 33.7368 48.6305 36.7691 48.387 38.0699C48.2274 38.9184 50.4469 38.7699 50.6413 38.7832C52.872 38.9184 49.9905 41.1512 51.3513 41.5353C53.4 42.0846 55.4387 32.8056 57.0096 37.5272C57.6517 39.4442 60.3936 36.078 60.588 38.4382C60.7878 40.9001 63.0375 41.5185 58.8396 42.1872C54.9822 42.8079 58.0748 44.3767 55.5494 45.6974C53.16 46.9478 51.0723 47.5339 49.3853 49.7758C47.4962 52.2901 47.3355 52.2108 46.5897 55.2901C46.1867 56.9592 44.1725 54.1524 44.9564 53.0873C44.6827 53.4558 42.3059 52.2913 42.0668 52.8919C41.6025 54.0564 40.3507 53.4267 39.364 54.1267C38.1147 55.0087 36.9043 57.8545 38.1581 59.1931C39.1563 60.2672 42.5659 56.8911 42.7523 58.0421C42.8952 58.9286 41.541 59.5516 41.6895 60.4325C41.9006 61.7053 43.9862 60.0674 43.9862 61.0554C43.9851 61.6919 43.1422 65.1831 44.981 64.5199C45.9735 64.1625 46.246 64.9229 46.8722 64.7644C47.7286 64.5479 48.2321 62.5425 49.2582 62.691C50.4729 62.8663 52.3251 63.4234 53.5476 63.7751C55.5439 64.3503 55.4388 66.035 57.7589 66.3865C60.1291 66.7461 59.1935 68.8719 58.9021 70.0597C58.652 71.0882 69.9506 69.8813 65.9982 75.4559ZM79.1682 44.7095C79.1692 44.7095 81.2694 44.733 81.7147 44.6638C82.1602 44.5944 82.1458 43.5461 82.1414 43.3228C82.138 43.0962 80.9355 42.558 81.2314 42.4129C81.5283 42.2678 82.2708 42.0545 82.4907 41.9082C82.5935 41.8402 82.8513 41.6157 83.1293 41.3668C84.047 42.3458 84.9034 43.3842 85.6928 44.4749C85.5476 44.5665 85.398 44.676 85.2897 44.7854C84.9983 45.0813 84.1006 44.695 84.1006 44.695C83.7098 45.1125 83.3201 45.5334 82.9272 45.9544C82.734 46.4022 82.5419 46.852 82.3477 47.3008C82.3477 47.3008 81.0091 47.9651 80.4096 48.0354C79.81 48.1046 78.8265 47.5664 78.6712 47.3387C78.5217 47.1109 79.1692 44.7071 79.1682 44.7095ZM89.1863 75.3275C88.9976 75.7741 88.7955 76.214 88.5867 76.6495C88.3769 75.9885 88.1692 75.4013 87.9862 75.0831C87.5496 74.3316 86.9657 73.4285 87.7193 71.6064C88.4739 69.7843 87.2971 67.5122 86.7044 66.9039C86.1115 66.2977 86.1138 65.841 86.7078 64.9278C87.3016 64.0156 86.5604 63.7109 85.9653 63.7109C85.369 63.7109 84.9213 62.6446 84.1744 62.7965C83.4285 62.9473 80.576 63.7097 79.5165 63.5567C78.4646 63.406 75.1231 60.1885 75.1163 59.4202C75.1163 58.6533 75.2571 55.7483 75.5585 55.2926C75.8622 54.836 77.5157 52.7549 78.1118 51.8483C78.708 50.9407 79.6013 49.736 80.3514 49.5907C81.105 49.4456 84.5371 48.8762 85.5687 48.5882C86.6026 48.2989 86.462 48.855 86.7667 49.4612C86.9654 49.488 87.162 49.5159 87.3596 49.5427C87.3607 49.5427 88.1769 49.7036 88.6961 50.0864C88.8021 50.1646 88.916 50.2394 89.0322 50.3142C90.7313 54.1973 91.6737 58.4834 91.6748 62.9996C91.6737 67.3793 90.7873 71.5393 89.1863 75.3275Z" fill="#CBC3FF"/>
</svg>
