<svg width="401" height="190" viewBox="0 0 401 190" fill="none" xmlns="http://www.w3.org/2000/svg">
<rect width="401" height="190" fill="#F6F4FF"/>
<path fill-rule="evenodd" clip-rule="evenodd" d="M179.009 69.6387C182.458 69.6387 185.422 72.0658 186.071 75.4224L186.359 76.915C187.493 82.7818 193.617 86.2853 199.312 84.3252L200.761 83.8263C204.019 82.7049 207.622 84.034 209.346 86.9937L211.951 91.464C213.676 94.4238 213.036 98.18 210.427 100.415L209.266 101.409C204.706 105.316 204.706 112.323 209.266 116.229L210.427 117.223C213.036 119.458 213.676 123.215 211.951 126.174L209.347 130.645C207.622 133.605 204.019 134.934 200.761 133.812L199.312 133.313C193.617 131.353 187.493 134.856 186.359 140.723L186.071 142.216C185.422 145.573 182.458 148 179.009 148H173.8C170.351 148 167.388 145.573 166.739 142.216L166.45 140.723C165.316 134.856 159.192 131.353 153.497 133.313L152.048 133.812C148.79 134.934 145.187 133.604 143.463 130.644L140.858 126.174C139.134 123.215 139.773 119.458 142.382 117.223L143.543 116.229C148.103 112.322 148.103 105.316 143.543 101.409L142.382 100.415C139.773 98.18 139.134 94.4239 140.858 91.4642L143.463 86.9938C145.187 84.0341 148.79 82.7049 152.048 83.8264L153.497 84.3251C159.192 86.2853 165.316 82.782 166.45 76.9153L166.739 75.4221C167.388 72.0656 170.351 69.6387 173.8 69.6387H179.009ZM176.405 120.014C182.454 120.014 187.358 115.002 187.358 108.819C187.358 102.637 182.454 97.6248 176.405 97.6248C170.355 97.6248 165.451 102.637 165.451 108.819C165.451 115.002 170.355 120.014 176.405 120.014Z" stroke="#433884" stroke-width="5"/>
<path fill-rule="evenodd" clip-rule="evenodd" d="M219.931 34.0411C222.021 33.8736 223.931 35.1961 224.482 37.1926L224.727 38.0804C225.689 41.57 229.565 43.3893 232.925 41.9285L233.78 41.5567C235.702 40.7209 237.948 41.349 239.132 43.0535L240.921 45.6279C242.105 47.3324 241.893 49.6329 240.416 51.11L239.759 51.7669C237.178 54.3488 237.507 58.5824 240.454 60.7211L241.204 61.2653C242.89 62.489 243.454 64.7274 242.548 66.5994L241.179 69.4268C240.272 71.2988 238.151 72.2768 236.123 71.7574L235.221 71.5263C231.678 70.6184 228.13 73.0326 227.718 76.6326L227.613 77.5484C227.377 79.608 225.695 81.2183 223.604 81.3858L220.446 81.6388C218.356 81.8063 216.446 80.4838 215.896 78.4875L215.651 77.5991C214.688 74.1096 210.812 72.2903 207.452 73.7513L206.597 74.1229C204.675 74.9589 202.429 74.3307 201.245 72.6262L199.457 70.052C198.273 68.3475 198.484 66.047 199.961 64.5698L200.618 63.9129C203.199 61.331 202.871 57.0976 199.923 54.9588L199.173 54.4145C197.487 53.1908 196.923 50.9525 197.83 49.0805L199.199 46.2531C200.106 44.3811 202.227 43.4031 204.254 43.9224L205.156 44.1534C208.699 45.0612 212.247 42.6471 212.66 39.0475L212.765 38.1313C213.001 36.0718 214.683 34.4616 216.773 34.2941L219.931 34.0411ZM220.713 64.6035C224.38 64.3097 227.117 61.0434 226.828 57.3081C226.538 53.5725 223.33 50.7826 219.664 51.0764C215.997 51.3702 213.26 54.6364 213.55 58.3719C213.84 62.1072 217.047 64.8973 220.713 64.6035Z" stroke="#433884" stroke-width="3"/>
<path fill-rule="evenodd" clip-rule="evenodd" d="M239.505 83.8065C240.98 84.0395 242.088 85.2741 242.147 86.7484L242.173 87.404C242.275 89.9807 244.664 91.8877 247.227 91.4372L247.879 91.3226C249.345 91.0649 250.799 91.8748 251.343 93.2526L252.165 95.3337C252.709 96.7116 252.19 98.269 250.929 99.0452L250.368 99.3903C248.163 100.747 247.706 103.733 249.401 105.706L249.832 106.208C250.802 107.337 250.831 108.981 249.9 110.126L248.495 111.855C247.565 112.999 245.938 113.322 244.618 112.624L244.031 112.313C241.724 111.093 238.878 112.172 238.01 114.596L237.789 115.212C237.293 116.599 235.868 117.433 234.393 117.2L232.166 116.848C230.692 116.615 229.583 115.38 229.525 113.906L229.499 113.25C229.397 110.673 227.007 108.766 224.445 109.217L223.793 109.332C222.327 109.589 220.873 108.779 220.329 107.402L219.507 105.321C218.963 103.943 219.481 102.385 220.743 101.609L221.304 101.264C223.508 99.9073 223.965 96.9214 222.27 94.9484L221.839 94.4463C220.869 93.3175 220.841 91.6736 221.771 90.5289L223.177 88.7999C224.107 87.6552 225.734 87.3322 227.054 88.0303L227.64 88.3408C229.947 89.561 232.794 88.482 233.661 86.0586L233.882 85.4417C234.379 84.0552 235.804 83.2212 237.278 83.4544L239.505 83.8065ZM235.106 105.098C237.692 105.507 240.115 103.702 240.518 101.067C240.922 98.4327 239.152 95.9655 236.566 95.5567C233.98 95.1478 231.557 96.9522 231.153 99.5869C230.75 102.222 232.519 104.689 235.106 105.098Z" stroke="#433884" stroke-width="2"/>
</svg>
