<svg width="345" height="344" viewBox="0 0 345 344" fill="none" xmlns="http://www.w3.org/2000/svg">
<g filter="url(#filter0_d_4140_27677)">
<g filter="url(#filter1_d_4140_27677)">
<circle cx="172.75" cy="147" r="120" fill="#413972"/>
<circle cx="172.75" cy="147" r="121" stroke="white" stroke-width="2"/>
</g>
<path fill-rule="evenodd" clip-rule="evenodd" d="M115.74 155.733C116.837 155.596 117.833 156.377 118.008 157.469C119.362 165.914 122.688 173.981 127.72 181.02C128.359 181.914 128.203 183.161 127.337 183.838L118.03 191.095C117.155 191.778 115.889 191.619 115.237 190.721C108.486 181.42 104.063 170.668 102.355 159.408C102.189 158.317 102.97 157.319 104.065 157.183L115.74 155.733ZM238.04 126.993C239.093 126.646 240.229 127.22 240.542 128.284C241.628 131.984 242.418 135.788 242.888 139.62C243.243 142.594 243.416 145.506 243.416 148.528C243.416 151.543 243.243 154.454 242.888 157.413C241.417 169.404 236.88 180.876 229.734 190.72C229.082 191.618 227.816 191.777 226.941 191.094L217.635 183.837C216.768 183.161 216.612 181.914 217.252 181.019C222.676 173.431 226.118 164.648 227.244 155.485C227.52 153.2 227.654 150.892 227.654 148.528C227.654 146.156 227.52 143.848 227.244 141.547C226.892 138.737 226.329 135.937 225.553 133.202C225.252 132.144 225.819 131.02 226.864 130.675L238.04 126.993ZM115.237 106.328C115.889 105.43 117.155 105.271 118.03 105.954L127.337 113.211C128.203 113.888 128.359 115.135 127.72 116.029C122.688 123.068 119.362 131.135 118.008 139.58C117.833 140.672 116.837 141.453 115.74 141.316L104.065 139.866C102.97 139.73 102.189 138.732 102.355 137.641C104.063 126.381 108.486 115.629 115.237 106.328ZM161.658 77.9421C162.751 77.7746 163.751 78.5575 163.885 79.6547L165.329 91.4307C165.464 92.5263 164.684 93.5198 163.594 93.6962C155.21 95.0528 147.207 98.3994 140.227 103.454C139.328 104.104 138.067 103.947 137.39 103.069L130.17 93.6964C129.498 92.8249 129.655 91.5721 130.541 90.92C139.781 84.1199 150.459 79.659 161.658 77.9421ZM181.09 79.6553C181.225 78.5576 182.226 77.7746 183.319 77.9428C194.512 79.6656 205.195 84.1202 214.428 90.9191C215.313 91.5713 215.47 92.8237 214.799 93.695L207.578 103.067C206.901 103.946 205.64 104.103 204.741 103.452C197.767 98.3983 189.759 95.0522 181.381 93.6955C180.292 93.5191 179.512 92.5257 179.647 91.4301L181.09 79.6553Z" fill="white"/>
<path d="M239.708 104.809L231.383 96.43C230.601 95.6428 229.327 95.6428 228.545 96.43L177.845 147.461C177.063 148.248 175.79 148.248 175.007 147.461L150.576 122.87C149.794 122.083 148.52 122.083 147.738 122.87L139.413 131.249C138.638 132.029 138.638 133.288 139.413 134.068L175.007 169.895C175.79 170.682 177.063 170.682 177.845 169.895L239.708 107.628C240.483 106.848 240.483 105.589 239.708 104.809Z" fill="#9E93DF"/>
</g>
<defs>
<filter id="filter0_d_4140_27677" x="25.75" y="10" width="294" height="294" filterUnits="userSpaceOnUse" color-interpolation-filters="sRGB">
<feFlood flood-opacity="0" result="BackgroundImageFix"/>
<feColorMatrix in="SourceAlpha" type="matrix" values="0 0 0 0 0 0 0 0 0 0 0 0 0 0 0 0 0 0 127 0" result="hardAlpha"/>
<feOffset dy="10"/>
<feGaussianBlur stdDeviation="12.5"/>
<feComposite in2="hardAlpha" operator="out"/>
<feColorMatrix type="matrix" values="0 0 0 0 0 0 0 0 0 0.0627451 0 0 0 0 0.427451 0 0 0 0.15 0"/>
<feBlend mode="normal" in2="BackgroundImageFix" result="effect1_dropShadow_4140_27677"/>
<feBlend mode="normal" in="SourceGraphic" in2="effect1_dropShadow_4140_27677" result="shape"/>
</filter>
<filter id="filter1_d_4140_27677" x="0.75" y="0" width="344" height="344" filterUnits="userSpaceOnUse" color-interpolation-filters="sRGB">
<feFlood flood-opacity="0" result="BackgroundImageFix"/>
<feColorMatrix in="SourceAlpha" type="matrix" values="0 0 0 0 0 0 0 0 0 0 0 0 0 0 0 0 0 0 127 0" result="hardAlpha"/>
<feOffset dy="25"/>
<feGaussianBlur stdDeviation="25"/>
<feComposite in2="hardAlpha" operator="out"/>
<feColorMatrix type="matrix" values="0 0 0 0 0 0 0 0 0 0.0627451 0 0 0 0 0.427451 0 0 0 0.05 0"/>
<feBlend mode="normal" in2="BackgroundImageFix" result="effect1_dropShadow_4140_27677"/>
<feBlend mode="normal" in="SourceGraphic" in2="effect1_dropShadow_4140_27677" result="shape"/>
</filter>
</defs>
</svg>
