<svg width="121" height="120" viewBox="0 0 121 120" fill="none" xmlns="http://www.w3.org/2000/svg">
<path d="M31.5207 99.8563C35.4474 103.171 40.0978 105.502 45.0907 106.656C45.5684 106.813 45.8899 106.183 45.5684 105.868C34.8741 95.5859 40.7504 84.4575 45.0907 79.44C48.1851 75.858 52.5923 69.9586 52.2708 62.0476C52.2708 61.2557 53.0745 60.6212 53.7086 61.0982C59.7769 64.2616 63.9251 71.2231 65.0415 76.9155C66.8008 75.1785 67.4393 72.4876 67.4393 70.1161C67.4393 69.3241 68.3949 68.6896 69.1941 69.3241C74.9409 74.544 84.836 92.2604 68.8727 106.179C68.5556 106.498 68.8727 107.133 69.1941 106.975C74.0345 105.696 78.5866 103.494 82.6033 100.486C108.622 80.2365 91.6991 44.3268 80.6833 32.4649C79.2499 31.0384 76.6958 31.9879 76.6958 34.0444C76.535 38.3193 75.258 43.0623 71.909 46.2258C69.3549 35.4709 60.8441 23.2535 48.712 17.2415C47.1179 16.4495 45.2023 17.714 45.363 19.4555C45.6756 34.1704 36.1512 43.5393 27.8503 55.7207C20.5049 66.6331 15.7181 86.7255 31.5207 99.8563Z" fill="#D6CFFF"/>
<path d="M75.0187 104.238C72.413 106.448 69.3271 108.001 66.0139 108.771C65.6969 108.876 65.4835 108.456 65.6969 108.246C72.7934 101.391 68.894 93.9716 66.0139 90.6267C63.9605 88.2387 61.036 84.3057 61.2493 79.0318C61.2493 78.5038 60.716 78.0808 60.2952 78.3988C56.2684 80.5078 53.5157 85.1487 52.775 88.9437C51.6075 87.7857 51.1838 85.9917 51.1838 84.4107C51.1838 83.8827 50.5497 83.4597 50.0193 83.8827C46.2059 87.3627 39.6397 99.1736 50.2327 108.453C50.443 108.666 50.2327 109.089 50.0193 108.984C46.8073 108.131 43.7867 106.662 41.1212 104.658C23.8555 91.1577 35.0855 67.2179 42.3954 59.3099C43.3465 58.3589 45.0414 58.9919 45.0414 60.3629C45.148 63.2129 45.9955 66.3749 48.2178 68.4839C49.9126 61.3139 55.5602 53.169 63.6109 49.161C64.6687 48.633 65.9398 49.476 65.8332 50.637C65.6258 60.4469 71.946 66.6929 77.4543 74.8138C82.3285 82.0887 85.5049 95.4836 75.0187 104.238Z" fill="#6B6BFF"/>
</svg>
