<svg width="39" height="30" viewBox="0 0 39 30" fill="none" xmlns="http://www.w3.org/2000/svg">
<path d="M16.3647 2.13907L14.9735 0C5.34767 6.47025 0 14.3318 0 20.802C0 27.0584 4.59985 30 8.50322 30C13.4231 30 16.8986 25.828 16.8986 21.4437C16.8986 17.7543 14.5457 14.5987 11.3901 13.4214C10.4814 13.0997 9.62581 12.8327 9.62581 11.2823C9.62581 9.30409 11.0701 6.36416 16.3647 2.13907ZM37.5945 2.13907L36.2033 0C26.6836 6.47025 21.2298 14.3318 21.2298 20.802C21.2298 27.0584 25.9358 30 29.8391 30C34.812 30 38.3424 25.828 38.3424 21.4437C38.3424 17.7543 35.9363 14.5987 32.673 13.4214C31.7643 13.0997 30.9617 12.8327 30.9617 11.2823C30.9617 9.30409 32.4591 6.36244 37.5928 2.13736L37.5945 2.13907Z" fill="#D4CEFF"/>
</svg>
