<svg width="401" height="190" viewBox="0 0 401 190" fill="none" xmlns="http://www.w3.org/2000/svg">
<rect width="401" height="190" fill="#F6F4FF"/>
<path d="M218 137H219C227.401 137 231.601 137 234.81 135.365C237.632 133.927 239.927 131.632 241.365 128.81C243 125.601 243 121.401 243 113V71C243 62.5992 243 58.3988 241.365 55.1902C239.927 52.3677 237.632 50.073 234.81 48.6349C231.601 47 227.401 47 219 47H177C168.599 47 164.399 47 161.19 48.6349C158.368 50.073 156.073 52.3677 154.635 55.1902C153 58.3988 153 62.5992 153 71V72M195.5 94.5L223 67M223 67H198M223 67V92M169 137H182C187.601 137 190.401 137 192.54 135.91C194.421 134.951 195.951 133.422 196.91 131.54C198 129.401 198 126.6 198 121V108C198 102.399 198 99.599 196.91 97.46C195.951 95.5785 194.421 94.0485 192.54 93.09C190.401 92 187.601 92 182 92H169C163.399 92 160.599 92 158.46 93.09C156.578 94.0485 155.049 95.5785 154.09 97.46C153 99.599 153 102.399 153 108V121C153 126.6 153 129.401 154.09 131.54C155.049 133.422 156.578 134.951 158.46 135.91C160.599 137 163.399 137 169 137Z" stroke="#433884" stroke-width="5" stroke-linecap="round"/>
</svg>
