<svg width="34" height="34" viewBox="0 0 34 34" fill="none" xmlns="http://www.w3.org/2000/svg">
<path fill-rule="evenodd" clip-rule="evenodd" d="M14.651 7.7317C14.2921 6.96166 13.1972 6.96166 12.8382 7.7317L10.9134 11.8614C9.91968 13.9933 8.20623 15.7068 6.07426 16.7005L1.9446 18.6253C1.17455 18.9843 1.17455 20.0792 1.94459 20.4381L6.07425 22.3629C8.20623 23.3567 9.91968 25.0701 10.9134 27.2021L12.8382 31.3318C13.1972 32.1018 14.2921 32.1018 14.651 31.3318L16.5758 27.2021C17.5696 25.0701 19.283 23.3567 21.415 22.3629L25.5446 20.4381C26.3147 20.0792 26.3147 18.9843 25.5446 18.6253L21.415 16.7005C19.283 15.7068 17.5696 13.9933 16.5758 11.8614L14.651 7.7317Z" fill="#6955EA"/>
<path fill-rule="evenodd" clip-rule="evenodd" d="M27.223 1.02949C27.0471 0.633308 26.4848 0.633307 26.309 1.02949L25.2042 3.5182C24.7274 4.59222 23.8876 5.46401 22.8322 5.98056L20.4496 7.14661C20.076 7.32946 20.076 7.86196 20.4496 8.04481L22.8322 9.21086C23.8876 9.72741 24.7274 10.5992 25.2042 11.6732L26.309 14.1619C26.4848 14.5581 27.0471 14.5581 27.223 14.1619L28.3277 11.6732C28.8045 10.5992 29.6443 9.72741 30.6998 9.21086L33.0823 8.04481C33.4559 7.86196 33.4559 7.32946 33.0823 7.14661L30.6998 5.98056C29.6443 5.46401 28.8045 4.59222 28.3277 3.5182L27.223 1.02949Z" fill="#6955EA"/>
</svg>
