<svg width="121" height="120" viewBox="0 0 121 120" fill="none" xmlns="http://www.w3.org/2000/svg">
<path fill-rule="evenodd" clip-rule="evenodd" d="M86.167 55C97.2127 55 106.167 63.9543 106.167 75V105H51.167V75C51.167 63.9543 60.1213 55 71.167 55H86.167ZM78.667 15C88.317 15 96.167 22.85 96.167 32.5C96.167 42.15 88.317 50 78.667 50C69.017 50 61.167 42.15 61.167 32.5C61.167 22.85 69.017 15 78.667 15Z" fill="#CBC3FF"/>
<path d="M45.001 74.7735C45.0319 71.3008 45.7707 67.9972 47.0803 65L35 65.0002L34.6691 65.0029C23.7719 65.1794 15 74.0607 15 85.0002V105L45 105V75.0002L45.001 74.7735Z" fill="#6B6BFF"/>
<circle cx="40" cy="44" r="16" fill="#6B6BFF"/>
</svg>
